<svg width="434" height="76" viewBox="0 0 434 76" fill="none" xmlns="http://www.w3.org/2000/svg">
<path d="M1.6875 50V46.3906L5.39062 45.6875V20.2109L1.6875 19.5078V15.875H5.39062H13.8516L23.8594 40.5547H24L33.7031 15.875H46.0078V19.5078L42.2812 20.2109V45.6875L46.0078 46.3906V50H32.6719V46.3906L36.5859 45.6875V37.7422L36.6328 22.8125L36.5156 22.7891L25.9453 49.2266H21.6562L10.7812 22.9297L10.6641 22.9531L10.9688 37.3438V45.6875L15.0234 46.3906V50H1.6875ZM53.8312 50V46.3906L57.3469 45.6875V28.9766L53.6203 28.2734V24.6406H63.2531V45.6875L66.7453 46.3906V50H53.8312ZM57.1125 18.8984V13.4375H63.2531V18.8984H57.1125ZM107.091 50V46.3906L110.606 45.6875V17.7734L106.88 17.0703V13.4375H116.489V27.9219C117.317 26.7344 118.341 25.8125 119.559 25.1562C120.778 24.5 122.153 24.1719 123.684 24.1719C126.294 24.1719 128.341 25.0078 129.825 26.6797C131.325 28.3359 132.075 30.8984 132.075 34.3672V45.6875L135.591 46.3906V50H122.864V46.3906L126.192 45.6875V34.3203C126.192 32.3828 125.802 30.9844 125.02 30.125C124.239 29.2656 123.091 28.8359 121.575 28.8359C120.497 28.8359 119.52 29.0781 118.645 29.5625C117.786 30.0312 117.067 30.6953 116.489 31.5547V45.6875L119.817 46.3906V50H107.091ZM154.57 50.4922C152.18 50.4922 150.094 49.9609 148.312 48.8984C146.547 47.8203 145.172 46.3359 144.188 44.4453C143.219 42.5547 142.734 40.3906 142.734 37.9531V36.9688C142.734 34.5 143.211 32.3047 144.164 30.3828C145.133 28.4453 146.461 26.9297 148.148 25.8359C149.836 24.7266 151.758 24.1719 153.914 24.1719C156.211 24.1719 158.133 24.6328 159.68 25.5547C161.242 26.4766 162.422 27.7891 163.219 29.4922C164.016 31.1797 164.414 33.2109 164.414 35.5859V38.9609H148.852L148.805 39.0781C148.867 40.4062 149.141 41.5859 149.625 42.6172C150.125 43.6484 150.828 44.4609 151.734 45.0547C152.656 45.6484 153.773 45.9453 155.086 45.9453C156.461 45.9453 157.711 45.7578 158.836 45.3828C159.961 45.0078 161 44.4766 161.953 43.7891L163.805 47.4922C162.805 48.3359 161.531 49.0469 159.984 49.625C158.438 50.2031 156.633 50.4922 154.57 50.4922ZM148.945 34.8125H158.766V34.2031C158.766 33.0938 158.594 32.125 158.25 31.2969C157.922 30.4531 157.398 29.7969 156.68 29.3281C155.977 28.8594 155.078 28.625 153.984 28.625C153.031 28.625 152.195 28.8906 151.477 29.4219C150.758 29.9531 150.18 30.6797 149.742 31.6016C149.32 32.5078 149.031 33.5391 148.875 34.6953L148.945 34.8125ZM172.238 50V46.3906L175.777 45.6875V17.7734L172.027 17.0703V13.4375H181.659V45.6875L185.198 46.3906V50H172.238ZM192.366 50V46.3906L195.905 45.6875V17.7734L192.155 17.0703V13.4375H201.788V45.6875L205.327 46.3906V50H192.366ZM224.236 50.4922C221.845 50.4922 219.759 49.9609 217.978 48.8984C216.212 47.8203 214.837 46.3359 213.853 44.4453C212.884 42.5547 212.4 40.3906 212.4 37.9531V36.9688C212.4 34.5 212.877 32.3047 213.83 30.3828C214.798 28.4453 216.127 26.9297 217.814 25.8359C219.502 24.7266 221.423 24.1719 223.58 24.1719C225.877 24.1719 227.798 24.6328 229.345 25.5547C230.908 26.4766 232.087 27.7891 232.884 29.4922C233.681 31.1797 234.08 33.2109 234.08 35.5859V38.9609H218.517L218.47 39.0781C218.533 40.4062 218.806 41.5859 219.291 42.6172C219.791 43.6484 220.494 44.4609 221.4 45.0547C222.322 45.6484 223.439 45.9453 224.752 45.9453C226.127 45.9453 227.377 45.7578 228.502 45.3828C229.627 45.0078 230.666 44.4766 231.619 43.7891L233.47 47.4922C232.47 48.3359 231.197 49.0469 229.65 49.625C228.103 50.2031 226.298 50.4922 224.236 50.4922ZM218.611 34.8125H228.431V34.2031C228.431 33.0938 228.259 32.125 227.916 31.2969C227.587 30.4531 227.064 29.7969 226.345 29.3281C225.642 28.8594 224.744 28.625 223.65 28.625C222.697 28.625 221.861 28.8906 221.142 29.4219C220.423 29.9531 219.845 30.6797 219.408 31.6016C218.986 32.5078 218.697 33.5391 218.541 34.6953L218.611 34.8125ZM267.516 41L264.422 37.4375L280.922 19.9062L280.992 19.8125L277.969 19.5078V15.875H290.695V19.5078L287.484 20.1406L267.516 41ZM258.844 50V46.3906L262.57 45.6875V20.2109L258.844 19.5078V15.875H272.086V19.5078L268.477 20.2109V45.6875L272.086 46.3906V50H258.844ZM278.719 50V46.3906L281.742 46.0859V46.0625L272.742 33.6406L276.445 29.4922L288.656 45.8047L291.914 46.3906V50H278.719ZM309.862 50.4922C307.425 50.4922 305.331 49.9453 303.581 48.8516C301.831 47.7578 300.487 46.2422 299.55 44.3047C298.612 42.3516 298.144 40.1094 298.144 37.5781V37.0859C298.144 34.5703 298.612 32.3438 299.55 30.4062C300.487 28.4688 301.831 26.9453 303.581 25.8359C305.331 24.7266 307.409 24.1719 309.816 24.1719C312.253 24.1719 314.347 24.7266 316.097 25.8359C317.847 26.9297 319.191 28.4453 320.128 30.3828C321.066 32.3203 321.534 34.5547 321.534 37.0859V37.5781C321.534 40.1094 321.066 42.3516 320.128 44.3047C319.191 46.2422 317.847 47.7578 316.097 48.8516C314.362 49.9453 312.284 50.4922 309.862 50.4922ZM309.862 45.9453C311.175 45.9453 312.253 45.5938 313.097 44.8906C313.956 44.1719 314.597 43.1875 315.019 41.9375C315.441 40.6719 315.652 39.2188 315.652 37.5781V37.0859C315.652 35.4609 315.441 34.0234 315.019 32.7734C314.597 31.5234 313.956 30.5391 313.097 29.8203C312.237 29.1016 311.144 28.7422 309.816 28.7422C308.519 28.7422 307.441 29.1016 306.581 29.8203C305.722 30.5391 305.081 31.5234 304.659 32.7734C304.253 34.0234 304.05 35.4609 304.05 37.0859V37.5781C304.05 39.2188 304.253 40.6719 304.659 41.9375C305.081 43.1875 305.722 44.1719 306.581 44.8906C307.456 45.5938 308.55 45.9453 309.862 45.9453ZM312.066 18.8984V13.4375H317.925V18.8984H312.066ZM301.777 18.8984V13.4375H307.636V18.8984H301.777ZM328.678 50V46.3906L332.194 45.6875V17.7734L328.467 17.0703V13.4375H338.077V27.9219C338.905 26.7344 339.928 25.8125 341.147 25.1562C342.366 24.5 343.741 24.1719 345.272 24.1719C347.881 24.1719 349.928 25.0078 351.413 26.6797C352.913 28.3359 353.663 30.8984 353.663 34.3672V45.6875L357.178 46.3906V50H344.452V46.3906L347.78 45.6875V34.3203C347.78 32.3828 347.389 30.9844 346.608 30.125C345.827 29.2656 344.678 28.8359 343.163 28.8359C342.084 28.8359 341.108 29.0781 340.233 29.5625C339.373 30.0312 338.655 30.6953 338.077 31.5547V45.6875L341.405 46.3906V50H328.678ZM364.275 50V46.3906L367.814 45.6875V17.7734L364.064 17.0703V13.4375H373.697V45.6875L377.236 46.3906V50H364.275ZM396.145 50.4922C393.755 50.4922 391.669 49.9609 389.888 48.8984C388.122 47.8203 386.747 46.3359 385.763 44.4453C384.794 42.5547 384.309 40.3906 384.309 37.9531V36.9688C384.309 34.5 384.786 32.3047 385.739 30.3828C386.708 28.4453 388.036 26.9297 389.723 25.8359C391.411 24.7266 393.333 24.1719 395.489 24.1719C397.786 24.1719 399.708 24.6328 401.255 25.5547C402.817 26.4766 403.997 27.7891 404.794 29.4922C405.591 31.1797 405.989 33.2109 405.989 35.5859V38.9609H390.427L390.38 39.0781C390.442 40.4062 390.716 41.5859 391.2 42.6172C391.7 43.6484 392.403 44.4609 393.309 45.0547C394.231 45.6484 395.348 45.9453 396.661 45.9453C398.036 45.9453 399.286 45.7578 400.411 45.3828C401.536 45.0078 402.575 44.4766 403.528 43.7891L405.38 47.4922C404.38 48.3359 403.106 49.0469 401.559 49.625C400.013 50.2031 398.208 50.4922 396.145 50.4922ZM390.52 34.8125H400.341V34.2031C400.341 33.0938 400.169 32.125 399.825 31.2969C399.497 30.4531 398.973 29.7969 398.255 29.3281C397.552 28.8594 396.653 28.625 395.559 28.625C394.606 28.625 393.77 28.8906 393.052 29.4219C392.333 29.9531 391.755 30.6797 391.317 31.6016C390.895 32.5078 390.606 33.5391 390.45 34.6953L390.52 34.8125ZM414.398 50V46.3906L417.914 45.6875V28.9766L414.211 28.2734V24.6406H423.352L423.656 27.8281L423.703 28.3438C424.375 27 425.195 25.9688 426.164 25.25C427.148 24.5312 428.297 24.1719 429.609 24.1719C430.047 24.1719 430.508 24.2109 430.992 24.2891C431.492 24.3672 431.898 24.4531 432.211 24.5469L431.531 30.0078L428.227 29.8203C427.148 29.7578 426.258 29.9688 425.555 30.4531C424.867 30.9375 424.289 31.6094 423.82 32.4688V45.6875L427.336 46.3906V50H414.398Z" fill="black"/>
<path d="M98.5 43.6095C94.6667 44.6095 86.3 45.5095 83.5 41.1095" stroke="black"/>
<path d="M83 21.1095C79.8333 25.1095 74.7 33.7095 79.5 36.1095" stroke="black"/>
<path d="M80 24.1095C77.5 30.6095 76.7 43.9095 93.5 45.1095" stroke="black"/>
<path d="M95.9783 46.6806C93.5364 48.391 91.0109 49.4075 88.4018 49.73C85.7998 50.0125 83.3174 49.6164 80.9545 48.5414C78.5987 47.4266 76.5738 45.66 74.8798 43.2415C73.6135 41.4336 72.7675 39.5762 72.3419 37.6694C71.8998 35.7391 71.8523 33.8474 72.1993 31.9944C72.5534 30.1014 73.288 28.3269 74.403 26.6709C75.5415 24.9985 77.0265 23.5209 78.8579 22.2381C79.5154 21.7776 80.1622 21.377 80.7986 21.0363C81.4584 20.6791 82.1276 20.3854 82.8063 20.155L83.6203 21.3173C81.5541 22.7645 80.0586 24.477 79.1339 26.4547C78.2327 28.4159 77.9186 30.4909 78.1916 32.6795C78.4482 34.8448 79.3166 36.984 80.7968 39.0971C82.2605 41.1869 83.9741 42.734 85.9377 43.7386C87.9013 44.7431 89.9587 45.1571 92.1099 44.9803C94.2845 44.7871 96.4049 43.9669 98.4711 42.5196L99.2852 43.6819C98.8368 44.2409 98.332 44.7695 97.7709 45.2675C97.2333 45.7491 96.6357 46.2201 95.9783 46.6806ZM95.203 45.6487C93.3197 46.4078 91.4058 46.6984 89.4612 46.5205C87.5002 46.3191 85.6365 45.682 83.8702 44.6093C82.0874 43.5131 80.5463 42.0375 79.2471 40.1826C77.9479 38.3277 77.096 36.3869 76.6915 34.3603C76.2869 32.3337 76.3251 30.3645 76.806 28.4527C77.2704 26.5174 78.1894 24.8063 79.5628 23.3193C78.0131 24.4048 76.7747 25.7097 75.8475 27.2341C74.9203 28.7586 74.3254 30.3827 74.0629 32.1065C73.7839 33.8069 73.8396 35.5354 74.2299 37.2919C74.6273 39.0085 75.3605 40.6299 76.4295 42.1561C77.5149 43.7058 78.8046 44.9724 80.2985 45.956C81.7995 46.8996 83.4048 47.5426 85.1146 47.885C86.808 48.2039 88.5294 48.1882 90.2789 47.8377C92.0119 47.4638 93.6533 46.7342 95.203 45.6487Z" fill="black"/>
<path d="M81.5 22.1095C77.8333 29.6095 75.7 44.6095 96.5 44.6095" stroke="black"/>
<path d="M78.6296 33.3292H78.3983" stroke="black" stroke-width="2" stroke-linecap="round"/>
<path d="M77.9357 30.091V32.8666" stroke="black" stroke-width="2" stroke-linecap="round"/>
<path d="M91.8136 45.8192C92.4883 45.1446 93.447 44.8941 94.3579 44.8941C94.8708 44.8941 96.7119 44.8121 96.9022 44.4315" stroke="black" stroke-linecap="round"/>
<path d="M92.0449 45.3567C92.6599 45.3567 96.9124 45.3363 97.1335 44.8941" stroke="black" stroke-linecap="round"/>
<path d="M134.207 67.2905V66.1406H129.769V62.4932H134.947V61.3359H128.399V72H129.769V67.2905H134.207ZM140.813 67.6494L142.908 72H144.336L144.344 71.9121L142.081 67.3564C142.374 67.2295 142.642 67.0757 142.886 66.895C143.13 66.7144 143.34 66.5068 143.516 66.2725C143.692 66.0381 143.829 65.7769 143.926 65.4888C144.029 65.2007 144.08 64.8833 144.08 64.5366C144.08 63.9995 143.985 63.5332 143.794 63.1377C143.609 62.7373 143.353 62.4053 143.025 62.1416C142.693 61.8779 142.308 61.6802 141.868 61.5483C141.429 61.4165 140.96 61.3457 140.462 61.3359H137.334V72H138.682V67.6494H140.813ZM138.682 66.5361V62.4492H140.462C140.789 62.4541 141.089 62.5005 141.363 62.5884C141.641 62.6763 141.88 62.8057 142.081 62.9766C142.281 63.1523 142.437 63.3696 142.549 63.6284C142.662 63.8823 142.718 64.1802 142.718 64.522C142.718 64.8442 142.659 65.1299 142.542 65.3789C142.425 65.623 142.266 65.8306 142.066 66.0015C141.861 66.1724 141.624 66.3042 141.355 66.397C141.087 66.4849 140.801 66.5312 140.499 66.5361H138.682ZM153.228 67.2832V66.0674C153.223 65.6865 153.189 65.3008 153.125 64.9102C153.067 64.5195 152.974 64.1436 152.847 63.7822C152.715 63.4209 152.549 63.084 152.349 62.7715C152.154 62.4541 151.919 62.1782 151.646 61.9438C151.373 61.7095 151.058 61.5264 150.701 61.3945C150.345 61.2578 149.947 61.1895 149.507 61.1895C149.068 61.1895 148.67 61.2578 148.313 61.3945C147.962 61.5264 147.649 61.7095 147.376 61.9438C147.103 62.1831 146.866 62.4614 146.666 62.7788C146.47 63.0913 146.309 63.4282 146.182 63.7896C146.05 64.1509 145.953 64.5269 145.889 64.9175C145.831 65.3032 145.799 65.6865 145.794 66.0674V67.2832C145.799 67.6641 145.833 68.0474 145.896 68.4331C145.96 68.8188 146.058 69.1924 146.189 69.5537C146.316 69.915 146.48 70.2544 146.68 70.5718C146.88 70.8843 147.117 71.1577 147.391 71.3921C147.664 71.6265 147.977 71.812 148.328 71.9487C148.685 72.0806 149.083 72.1465 149.522 72.1465C149.961 72.1465 150.357 72.0806 150.708 71.9487C151.065 71.812 151.38 71.6265 151.653 71.3921C151.927 71.1577 152.161 70.8843 152.356 70.5718C152.557 70.2593 152.72 69.9224 152.847 69.561C152.974 69.1997 153.067 68.8262 153.125 68.4404C153.189 68.0498 153.223 67.6641 153.228 67.2832ZM151.888 66.0527V67.2832C151.883 67.5371 151.866 67.8032 151.836 68.0815C151.812 68.3599 151.766 68.6333 151.697 68.9019C151.624 69.1753 151.529 69.4365 151.412 69.6855C151.299 69.9297 151.158 70.1445 150.987 70.3301C150.811 70.5205 150.601 70.6719 150.357 70.7842C150.118 70.8965 149.839 70.9526 149.522 70.9526C149.205 70.9526 148.926 70.8965 148.687 70.7842C148.448 70.6719 148.24 70.5205 148.064 70.3301C147.889 70.1445 147.742 69.9272 147.625 69.6782C147.508 69.4292 147.413 69.168 147.339 68.8945C147.266 68.626 147.212 68.3525 147.178 68.0742C147.149 67.7959 147.132 67.5322 147.127 67.2832V66.0527C147.132 65.8037 147.149 65.5425 147.178 65.269C147.212 64.9907 147.266 64.7148 147.339 64.4414C147.408 64.1729 147.5 63.9165 147.618 63.6724C147.735 63.4233 147.881 63.2036 148.057 63.0132C148.233 62.8276 148.44 62.6787 148.68 62.5664C148.919 62.4541 149.195 62.3979 149.507 62.3979C149.825 62.3979 150.103 62.4541 150.342 62.5664C150.582 62.6738 150.789 62.8203 150.965 63.0059C151.141 63.1963 151.287 63.416 151.404 63.665C151.521 63.9092 151.617 64.1655 151.69 64.4341C151.758 64.7075 151.807 64.9834 151.836 65.2617C151.866 65.5352 151.883 65.7988 151.888 66.0527ZM161.98 72V61.3359H160.611L160.589 69.29L156.451 61.3359H155.074V72H156.443L156.465 64.0312L160.604 72H161.98ZM171.502 62.4932V61.3359H163.592V62.4932H166.888V72H168.206V62.4932H171.502ZM179.244 67.8911V66.7778H173.641V67.8911H179.244ZM188.194 67.0708V65.9209H183.741V62.4932H188.868V61.3359H182.386V72H188.934V70.8501H183.741V67.0708H188.194ZM198.016 72V61.3359H196.646L196.624 69.29L192.486 61.3359H191.109V72H192.479L192.5 64.0312L196.639 72H198.016ZM200.206 72H202.674C203.187 71.9951 203.663 71.9341 204.102 71.8169C204.546 71.6997 204.944 71.5312 205.296 71.3115C205.628 71.1016 205.928 70.8477 206.197 70.5498C206.465 70.252 206.688 69.9199 206.863 69.5537C207.034 69.2021 207.164 68.8164 207.251 68.3965C207.344 67.9766 207.391 67.5322 207.391 67.0635V66.2798C207.386 65.7915 207.334 65.3325 207.237 64.9028C207.144 64.4731 207.007 64.0776 206.827 63.7163C206.626 63.2915 206.358 62.918 206.021 62.5957C205.689 62.2686 205.306 62.0049 204.871 61.8047C204.559 61.6582 204.217 61.5459 203.846 61.4678C203.479 61.3848 203.089 61.3408 202.674 61.3359H200.206V72ZM201.583 62.4492H202.674C203.011 62.4541 203.321 62.4932 203.604 62.5664C203.887 62.6348 204.144 62.7324 204.373 62.8594C204.695 63.0303 204.966 63.2549 205.186 63.5332C205.411 63.8066 205.589 64.1143 205.721 64.4561C205.823 64.7197 205.899 65.0054 205.948 65.313C206.001 65.6157 206.031 65.9331 206.036 66.2651V67.0635C206.031 67.3906 206.004 67.7056 205.955 68.0083C205.906 68.3062 205.833 68.5845 205.735 68.8433C205.623 69.1606 205.469 69.4487 205.274 69.7075C205.083 69.9614 204.856 70.1763 204.593 70.3521C204.344 70.5229 204.058 70.6548 203.736 70.7476C203.418 70.8403 203.064 70.8892 202.674 70.894H201.583V62.4492ZM218.223 72H220.691C221.204 71.9951 221.68 71.9341 222.12 71.8169C222.564 71.6997 222.962 71.5312 223.313 71.3115C223.646 71.1016 223.946 70.8477 224.214 70.5498C224.483 70.252 224.705 69.9199 224.881 69.5537C225.052 69.2021 225.181 68.8164 225.269 68.3965C225.362 67.9766 225.408 67.5322 225.408 67.0635V66.2798C225.403 65.7915 225.352 65.3325 225.254 64.9028C225.162 64.4731 225.025 64.0776 224.844 63.7163C224.644 63.2915 224.375 62.918 224.039 62.5957C223.707 62.2686 223.323 62.0049 222.889 61.8047C222.576 61.6582 222.234 61.5459 221.863 61.4678C221.497 61.3848 221.106 61.3408 220.691 61.3359H218.223V72ZM219.6 62.4492H220.691C221.028 62.4541 221.338 62.4932 221.622 62.5664C221.905 62.6348 222.161 62.7324 222.391 62.8594C222.713 63.0303 222.984 63.2549 223.204 63.5332C223.428 63.8066 223.606 64.1143 223.738 64.4561C223.841 64.7197 223.917 65.0054 223.965 65.313C224.019 65.6157 224.048 65.9331 224.053 66.2651V67.0635C224.048 67.3906 224.021 67.7056 223.973 68.0083C223.924 68.3062 223.851 68.5845 223.753 68.8433C223.641 69.1606 223.487 69.4487 223.292 69.7075C223.101 69.9614 222.874 70.1763 222.61 70.3521C222.361 70.5229 222.076 70.6548 221.753 70.7476C221.436 70.8403 221.082 70.8892 220.691 70.894H219.6V62.4492ZM233.238 67.0708V65.9209H228.785V62.4932H233.912V61.3359H227.43V72H233.978V70.8501H228.785V67.0708H233.238ZM238.995 72H240.174L243.536 61.3359H242.093L239.734 69.2827L239.573 69.8174L239.419 69.2974L237.076 61.3359H235.625L238.995 72ZM251.255 67.0708V65.9209H246.802V62.4932H251.929V61.3359H245.447V72H251.995V70.8501H246.802V67.0708H251.255ZM255.928 70.8501V61.3359H254.573V72H261.143V70.8501H255.928ZM270.342 67.2832V66.0674C270.337 65.6865 270.303 65.3008 270.24 64.9102C270.181 64.5195 270.088 64.1436 269.961 63.7822C269.83 63.4209 269.664 63.084 269.463 62.7715C269.268 62.4541 269.034 62.1782 268.76 61.9438C268.487 61.7095 268.172 61.5264 267.815 61.3945C267.459 61.2578 267.061 61.1895 266.622 61.1895C266.182 61.1895 265.784 61.2578 265.428 61.3945C265.076 61.5264 264.764 61.7095 264.49 61.9438C264.217 62.1831 263.98 62.4614 263.78 62.7788C263.584 63.0913 263.423 63.4282 263.296 63.7896C263.165 64.1509 263.067 64.5269 263.003 64.9175C262.945 65.3032 262.913 65.6865 262.908 66.0674V67.2832C262.913 67.6641 262.947 68.0474 263.011 68.4331C263.074 68.8188 263.172 69.1924 263.304 69.5537C263.431 69.915 263.594 70.2544 263.794 70.5718C263.995 70.8843 264.231 71.1577 264.505 71.3921C264.778 71.6265 265.091 71.812 265.442 71.9487C265.799 72.0806 266.197 72.1465 266.636 72.1465C267.076 72.1465 267.471 72.0806 267.823 71.9487C268.179 71.812 268.494 71.6265 268.768 71.3921C269.041 71.1577 269.275 70.8843 269.471 70.5718C269.671 70.2593 269.834 69.9224 269.961 69.561C270.088 69.1997 270.181 68.8262 270.24 68.4404C270.303 68.0498 270.337 67.6641 270.342 67.2832ZM269.002 66.0527V67.2832C268.997 67.5371 268.98 67.8032 268.951 68.0815C268.926 68.3599 268.88 68.6333 268.812 68.9019C268.738 69.1753 268.643 69.4365 268.526 69.6855C268.414 69.9297 268.272 70.1445 268.101 70.3301C267.925 70.5205 267.715 70.6719 267.471 70.7842C267.232 70.8965 266.954 70.9526 266.636 70.9526C266.319 70.9526 266.041 70.8965 265.801 70.7842C265.562 70.6719 265.354 70.5205 265.179 70.3301C265.003 70.1445 264.856 69.9272 264.739 69.6782C264.622 69.4292 264.527 69.168 264.454 68.8945C264.38 68.626 264.327 68.3525 264.292 68.0742C264.263 67.7959 264.246 67.5322 264.241 67.2832V66.0527C264.246 65.8037 264.263 65.5425 264.292 65.269C264.327 64.9907 264.38 64.7148 264.454 64.4414C264.522 64.1729 264.615 63.9165 264.732 63.6724C264.849 63.4233 264.996 63.2036 265.171 63.0132C265.347 62.8276 265.555 62.6787 265.794 62.5664C266.033 62.4541 266.309 62.3979 266.622 62.3979C266.939 62.3979 267.217 62.4541 267.457 62.5664C267.696 62.6738 267.903 62.8203 268.079 63.0059C268.255 63.1963 268.401 63.416 268.519 63.665C268.636 63.9092 268.731 64.1655 268.804 64.4341C268.873 64.7075 268.921 64.9834 268.951 65.2617C268.98 65.5352 268.997 65.7988 269.002 66.0527ZM273.895 67.7227H275.997C276.475 67.7178 276.927 67.6445 277.352 67.5029C277.781 67.3613 278.157 67.1562 278.479 66.8877C278.802 66.6191 279.056 66.2896 279.241 65.8989C279.432 65.5034 279.527 65.0493 279.527 64.5366C279.527 64.0239 279.432 63.5698 279.241 63.1743C279.056 62.7788 278.802 62.4468 278.479 62.1782C278.157 61.9097 277.781 61.7046 277.352 61.563C276.927 61.4214 276.475 61.3457 275.997 61.3359H272.54V72H273.895V67.7227ZM273.895 66.6094V62.4492H275.997C276.309 62.4541 276.597 62.5054 276.861 62.603C277.129 62.7007 277.361 62.8398 277.557 63.0205C277.747 63.2012 277.896 63.4209 278.003 63.6797C278.116 63.9385 278.172 64.229 278.172 64.5513C278.172 64.8735 278.116 65.1616 278.003 65.4155C277.896 65.6646 277.745 65.877 277.549 66.0527C277.354 66.2285 277.125 66.3652 276.861 66.4629C276.597 66.5557 276.309 66.6045 275.997 66.6094H273.895ZM287.291 67.0708V65.9209H282.837V62.4932H287.964V61.3359H281.482V72H288.03V70.8501H282.837V67.0708H287.291ZM293.963 67.6494L296.058 72H297.486L297.493 71.9121L295.23 67.3564C295.523 67.2295 295.792 67.0757 296.036 66.895C296.28 66.7144 296.49 66.5068 296.666 66.2725C296.841 66.0381 296.978 65.7769 297.076 65.4888C297.178 65.2007 297.229 64.8833 297.229 64.5366C297.229 63.9995 297.134 63.5332 296.944 63.1377C296.758 62.7373 296.502 62.4053 296.175 62.1416C295.843 61.8779 295.457 61.6802 295.018 61.5483C294.578 61.4165 294.109 61.3457 293.611 61.3359H290.484V72H291.832V67.6494H293.963ZM291.832 66.5361V62.4492H293.611C293.938 62.4541 294.239 62.5005 294.512 62.5884C294.791 62.6763 295.03 62.8057 295.23 62.9766C295.43 63.1523 295.586 63.3696 295.699 63.6284C295.811 63.8823 295.867 64.1802 295.867 64.522C295.867 64.8442 295.809 65.1299 295.691 65.3789C295.574 65.623 295.416 65.8306 295.215 66.0015C295.01 66.1724 294.773 66.3042 294.505 66.397C294.236 66.4849 293.951 66.5312 293.648 66.5361H291.832Z" fill="black"/>
<path d="M10 66L117 66" stroke="black" stroke-width="2"/>
<path d="M309 66H416" stroke="black" stroke-width="2"/>
</svg>
