<svg width="519" height="200" viewBox="0 0 519 200" fill="none" xmlns="http://www.w3.org/2000/svg">
<rect width="519" height="200" fill="#1E1E1E"/>
<rect width="519" height="200" fill="white"/>
<path d="M47.6875 100V96.3906L51.3906 95.6875V70.2109L47.6875 69.5078V65.875H51.3906H59.8516L69.8594 90.5547H70L79.7031 65.875H92.0078V69.5078L88.2812 70.2109V95.6875L92.0078 96.3906V100H78.6719V96.3906L82.5859 95.6875V87.7422L82.6328 72.8125L82.5156 72.7891L71.9453 99.2266H67.6562L56.7812 72.9297L56.6641 72.9531L56.9688 87.3438V95.6875L61.0234 96.3906V100H47.6875ZM99.8312 100V96.3906L103.347 95.6875V78.9766L99.6203 78.2734V74.6406H109.253V95.6875L112.745 96.3906V100H99.8312ZM103.112 68.8984V63.4375H109.253V68.8984H103.112ZM153.091 100V96.3906L156.606 95.6875V67.7734L152.88 67.0703V63.4375H162.489V77.9219C163.317 76.7344 164.341 75.8125 165.559 75.1562C166.778 74.5 168.153 74.1719 169.684 74.1719C172.294 74.1719 174.341 75.0078 175.825 76.6797C177.325 78.3359 178.075 80.8984 178.075 84.3672V95.6875L181.591 96.3906V100H168.864V96.3906L172.192 95.6875V84.3203C172.192 82.3828 171.802 80.9844 171.02 80.125C170.239 79.2656 169.091 78.8359 167.575 78.8359C166.497 78.8359 165.52 79.0781 164.645 79.5625C163.786 80.0312 163.067 80.6953 162.489 81.5547V95.6875L165.817 96.3906V100H153.091ZM200.57 100.492C198.18 100.492 196.094 99.9609 194.312 98.8984C192.547 97.8203 191.172 96.3359 190.188 94.4453C189.219 92.5547 188.734 90.3906 188.734 87.9531V86.9688C188.734 84.5 189.211 82.3047 190.164 80.3828C191.133 78.4453 192.461 76.9297 194.148 75.8359C195.836 74.7266 197.758 74.1719 199.914 74.1719C202.211 74.1719 204.133 74.6328 205.68 75.5547C207.242 76.4766 208.422 77.7891 209.219 79.4922C210.016 81.1797 210.414 83.2109 210.414 85.5859V88.9609H194.852L194.805 89.0781C194.867 90.4062 195.141 91.5859 195.625 92.6172C196.125 93.6484 196.828 94.4609 197.734 95.0547C198.656 95.6484 199.773 95.9453 201.086 95.9453C202.461 95.9453 203.711 95.7578 204.836 95.3828C205.961 95.0078 207 94.4766 207.953 93.7891L209.805 97.4922C208.805 98.3359 207.531 99.0469 205.984 99.625C204.438 100.203 202.633 100.492 200.57 100.492ZM194.945 84.8125H204.766V84.2031C204.766 83.0938 204.594 82.125 204.25 81.2969C203.922 80.4531 203.398 79.7969 202.68 79.3281C201.977 78.8594 201.078 78.625 199.984 78.625C199.031 78.625 198.195 78.8906 197.477 79.4219C196.758 79.9531 196.18 80.6797 195.742 81.6016C195.32 82.5078 195.031 83.5391 194.875 84.6953L194.945 84.8125ZM218.238 100V96.3906L221.777 95.6875V67.7734L218.027 67.0703V63.4375H227.659V95.6875L231.198 96.3906V100H218.238ZM238.366 100V96.3906L241.905 95.6875V67.7734L238.155 67.0703V63.4375H247.788V95.6875L251.327 96.3906V100H238.366ZM270.236 100.492C267.845 100.492 265.759 99.9609 263.978 98.8984C262.212 97.8203 260.837 96.3359 259.853 94.4453C258.884 92.5547 258.4 90.3906 258.4 87.9531V86.9688C258.4 84.5 258.877 82.3047 259.83 80.3828C260.798 78.4453 262.127 76.9297 263.814 75.8359C265.502 74.7266 267.423 74.1719 269.58 74.1719C271.877 74.1719 273.798 74.6328 275.345 75.5547C276.908 76.4766 278.087 77.7891 278.884 79.4922C279.681 81.1797 280.08 83.2109 280.08 85.5859V88.9609H264.517L264.47 89.0781C264.533 90.4062 264.806 91.5859 265.291 92.6172C265.791 93.6484 266.494 94.4609 267.4 95.0547C268.322 95.6484 269.439 95.9453 270.752 95.9453C272.127 95.9453 273.377 95.7578 274.502 95.3828C275.627 95.0078 276.666 94.4766 277.619 93.7891L279.47 97.4922C278.47 98.3359 277.197 99.0469 275.65 99.625C274.103 100.203 272.298 100.492 270.236 100.492ZM264.611 84.8125H274.431V84.2031C274.431 83.0938 274.259 82.125 273.916 81.2969C273.587 80.4531 273.064 79.7969 272.345 79.3281C271.642 78.8594 270.744 78.625 269.65 78.625C268.697 78.625 267.861 78.8906 267.142 79.4219C266.423 79.9531 265.845 80.6797 265.408 81.6016C264.986 82.5078 264.697 83.5391 264.541 84.6953L264.611 84.8125ZM313.516 91L310.422 87.4375L326.922 69.9062L326.992 69.8125L323.969 69.5078V65.875H336.695V69.5078L333.484 70.1406L313.516 91ZM304.844 100V96.3906L308.57 95.6875V70.2109L304.844 69.5078V65.875H318.086V69.5078L314.477 70.2109V95.6875L318.086 96.3906V100H304.844ZM324.719 100V96.3906L327.742 96.0859V96.0625L318.742 83.6406L322.445 79.4922L334.656 95.8047L337.914 96.3906V100H324.719ZM355.862 100.492C353.425 100.492 351.331 99.9453 349.581 98.8516C347.831 97.7578 346.487 96.2422 345.55 94.3047C344.612 92.3516 344.144 90.1094 344.144 87.5781V87.0859C344.144 84.5703 344.612 82.3438 345.55 80.4062C346.487 78.4688 347.831 76.9453 349.581 75.8359C351.331 74.7266 353.409 74.1719 355.816 74.1719C358.253 74.1719 360.347 74.7266 362.097 75.8359C363.847 76.9297 365.191 78.4453 366.128 80.3828C367.066 82.3203 367.534 84.5547 367.534 87.0859V87.5781C367.534 90.1094 367.066 92.3516 366.128 94.3047C365.191 96.2422 363.847 97.7578 362.097 98.8516C360.362 99.9453 358.284 100.492 355.862 100.492ZM355.862 95.9453C357.175 95.9453 358.253 95.5938 359.097 94.8906C359.956 94.1719 360.597 93.1875 361.019 91.9375C361.441 90.6719 361.652 89.2188 361.652 87.5781V87.0859C361.652 85.4609 361.441 84.0234 361.019 82.7734C360.597 81.5234 359.956 80.5391 359.097 79.8203C358.237 79.1016 357.144 78.7422 355.816 78.7422C354.519 78.7422 353.441 79.1016 352.581 79.8203C351.722 80.5391 351.081 81.5234 350.659 82.7734C350.253 84.0234 350.05 85.4609 350.05 87.0859V87.5781C350.05 89.2188 350.253 90.6719 350.659 91.9375C351.081 93.1875 351.722 94.1719 352.581 94.8906C353.456 95.5938 354.55 95.9453 355.862 95.9453ZM358.066 68.8984V63.4375H363.925V68.8984H358.066ZM347.777 68.8984V63.4375H353.636V68.8984H347.777ZM374.678 100V96.3906L378.194 95.6875V67.7734L374.467 67.0703V63.4375H384.077V77.9219C384.905 76.7344 385.928 75.8125 387.147 75.1562C388.366 74.5 389.741 74.1719 391.272 74.1719C393.881 74.1719 395.928 75.0078 397.413 76.6797C398.913 78.3359 399.663 80.8984 399.663 84.3672V95.6875L403.178 96.3906V100H390.452V96.3906L393.78 95.6875V84.3203C393.78 82.3828 393.389 80.9844 392.608 80.125C391.827 79.2656 390.678 78.8359 389.163 78.8359C388.084 78.8359 387.108 79.0781 386.233 79.5625C385.373 80.0312 384.655 80.6953 384.077 81.5547V95.6875L387.405 96.3906V100H374.678ZM410.275 100V96.3906L413.814 95.6875V67.7734L410.064 67.0703V63.4375H419.697V95.6875L423.236 96.3906V100H410.275ZM442.145 100.492C439.755 100.492 437.669 99.9609 435.888 98.8984C434.122 97.8203 432.747 96.3359 431.763 94.4453C430.794 92.5547 430.309 90.3906 430.309 87.9531V86.9688C430.309 84.5 430.786 82.3047 431.739 80.3828C432.708 78.4453 434.036 76.9297 435.723 75.8359C437.411 74.7266 439.333 74.1719 441.489 74.1719C443.786 74.1719 445.708 74.6328 447.255 75.5547C448.817 76.4766 449.997 77.7891 450.794 79.4922C451.591 81.1797 451.989 83.2109 451.989 85.5859V88.9609H436.427L436.38 89.0781C436.442 90.4062 436.716 91.5859 437.2 92.6172C437.7 93.6484 438.403 94.4609 439.309 95.0547C440.231 95.6484 441.348 95.9453 442.661 95.9453C444.036 95.9453 445.286 95.7578 446.411 95.3828C447.536 95.0078 448.575 94.4766 449.528 93.7891L451.38 97.4922C450.38 98.3359 449.106 99.0469 447.559 99.625C446.013 100.203 444.208 100.492 442.145 100.492ZM436.52 84.8125H446.341V84.2031C446.341 83.0938 446.169 82.125 445.825 81.2969C445.497 80.4531 444.973 79.7969 444.255 79.3281C443.552 78.8594 442.653 78.625 441.559 78.625C440.606 78.625 439.77 78.8906 439.052 79.4219C438.333 79.9531 437.755 80.6797 437.317 81.6016C436.895 82.5078 436.606 83.5391 436.45 84.6953L436.52 84.8125ZM460.398 100V96.3906L463.914 95.6875V78.9766L460.211 78.2734V74.6406H469.352L469.656 77.8281L469.703 78.3438C470.375 77 471.195 75.9688 472.164 75.25C473.148 74.5312 474.297 74.1719 475.609 74.1719C476.047 74.1719 476.508 74.2109 476.992 74.2891C477.492 74.3672 477.898 74.4531 478.211 74.5469L477.531 80.0078L474.227 79.8203C473.148 79.7578 472.258 79.9688 471.555 80.4531C470.867 80.9375 470.289 81.6094 469.82 82.4688V95.6875L473.336 96.3906V100H460.398Z" fill="black"/>
<path d="M144.5 93.6095C140.667 94.6095 132.3 95.5095 129.5 91.1095" stroke="black"/>
<path d="M129 71.1095C125.833 75.1095 120.7 83.7095 125.5 86.1095" stroke="black"/>
<path d="M126 74.1095C123.5 80.6095 122.7 93.9095 139.5 95.1095" stroke="black"/>
<path d="M141.978 96.6806C139.536 98.391 137.011 99.4075 134.402 99.73C131.8 100.013 129.317 99.6164 126.954 98.5414C124.599 97.4266 122.574 95.66 120.88 93.2415C119.613 91.4336 118.768 89.5762 118.342 87.6694C117.9 85.7391 117.852 83.8474 118.199 81.9944C118.553 80.1014 119.288 78.3269 120.403 76.6709C121.542 74.9985 123.026 73.5209 124.858 72.2381C125.515 71.7776 126.162 71.377 126.799 71.0363C127.458 70.6791 128.128 70.3854 128.806 70.155L129.62 71.3173C127.554 72.7645 126.059 74.477 125.134 76.4547C124.233 78.4159 123.919 80.4909 124.192 82.6795C124.448 84.8448 125.317 86.984 126.797 89.0971C128.26 91.1869 129.974 92.734 131.938 93.7386C133.901 94.7431 135.959 95.1571 138.11 94.9803C140.284 94.7871 142.405 93.9669 144.471 92.5196L145.285 93.6819C144.837 94.2409 144.332 94.7695 143.771 95.2675C143.233 95.7491 142.636 96.2201 141.978 96.6806ZM141.203 95.6487C139.32 96.4078 137.406 96.6984 135.461 96.5205C133.5 96.3191 131.637 95.682 129.87 94.6093C128.087 93.5131 126.546 92.0375 125.247 90.1826C123.948 88.3277 123.096 86.3869 122.691 84.3603C122.287 82.3337 122.325 80.3645 122.806 78.4527C123.27 76.5174 124.189 74.8063 125.563 73.3193C124.013 74.4048 122.775 75.7097 121.847 77.2341C120.92 78.7586 120.325 80.3827 120.063 82.1065C119.784 83.8069 119.84 85.5354 120.23 87.2919C120.627 89.0085 121.361 90.6299 122.43 92.1561C123.515 93.7058 124.805 94.9724 126.299 95.956C127.799 96.8996 129.405 97.5426 131.115 97.885C132.808 98.2039 134.529 98.1882 136.279 97.8377C138.012 97.4638 139.653 96.7342 141.203 95.6487Z" fill="black"/>
<path d="M127.5 72.1095C123.833 79.6095 121.7 94.6095 142.5 94.6095" stroke="black"/>
<path d="M124.63 83.3292H124.398" stroke="black" stroke-width="2" stroke-linecap="round"/>
<path d="M123.936 80.091V82.8666" stroke="black" stroke-width="2" stroke-linecap="round"/>
<path d="M137.814 95.8192C138.488 95.1446 139.447 94.8941 140.358 94.8941C140.871 94.8941 142.712 94.8121 142.902 94.4315" stroke="black" stroke-linecap="round"/>
<path d="M138.045 95.3567C138.66 95.3567 142.912 95.3363 143.133 94.8941" stroke="black" stroke-linecap="round"/>
<path d="M130.181 74.7711C130.181 73.4931 129.856 71.4891 130.412 70.3765" stroke="white" stroke-linecap="round"/>
<path d="M128.793 74.3086C128.793 72.9925 129.098 72.3618 129.898 71.4816C130.309 71.0297 131.106 69.8297 131.106 69.22" stroke="white" stroke-linecap="round"/>
<path d="M142.208 93.0437C143.042 93.0437 143.331 92.7244 144.059 92.4012C144.585 92.1673 145.637 92.662 145.909 92.1185" stroke="white" stroke-linecap="round"/>
<path d="M180.207 117.291V116.141H175.769V112.493H180.947V111.336H174.399V122H175.769V117.291H180.207ZM186.813 117.649L188.908 122H190.336L190.344 121.912L188.081 117.356C188.374 117.229 188.642 117.076 188.886 116.895C189.13 116.714 189.34 116.507 189.516 116.272C189.692 116.038 189.829 115.777 189.926 115.489C190.029 115.201 190.08 114.883 190.08 114.537C190.08 114 189.985 113.533 189.794 113.138C189.609 112.737 189.353 112.405 189.025 112.142C188.693 111.878 188.308 111.68 187.868 111.548C187.429 111.417 186.96 111.346 186.462 111.336H183.334V122H184.682V117.649H186.813ZM184.682 116.536V112.449H186.462C186.789 112.454 187.089 112.5 187.363 112.588C187.641 112.676 187.88 112.806 188.081 112.977C188.281 113.152 188.437 113.37 188.549 113.628C188.662 113.882 188.718 114.18 188.718 114.522C188.718 114.844 188.659 115.13 188.542 115.379C188.425 115.623 188.266 115.831 188.066 116.001C187.861 116.172 187.624 116.304 187.355 116.397C187.087 116.485 186.801 116.531 186.499 116.536H184.682ZM199.228 117.283V116.067C199.223 115.687 199.189 115.301 199.125 114.91C199.067 114.52 198.974 114.144 198.847 113.782C198.715 113.421 198.549 113.084 198.349 112.771C198.154 112.454 197.919 112.178 197.646 111.944C197.373 111.709 197.058 111.526 196.701 111.395C196.345 111.258 195.947 111.189 195.507 111.189C195.068 111.189 194.67 111.258 194.313 111.395C193.962 111.526 193.649 111.709 193.376 111.944C193.103 112.183 192.866 112.461 192.666 112.779C192.47 113.091 192.309 113.428 192.182 113.79C192.05 114.151 191.953 114.527 191.889 114.917C191.831 115.303 191.799 115.687 191.794 116.067V117.283C191.799 117.664 191.833 118.047 191.896 118.433C191.96 118.819 192.058 119.192 192.189 119.554C192.316 119.915 192.48 120.254 192.68 120.572C192.88 120.884 193.117 121.158 193.391 121.392C193.664 121.626 193.977 121.812 194.328 121.949C194.685 122.081 195.083 122.146 195.522 122.146C195.961 122.146 196.357 122.081 196.708 121.949C197.065 121.812 197.38 121.626 197.653 121.392C197.927 121.158 198.161 120.884 198.356 120.572C198.557 120.259 198.72 119.922 198.847 119.561C198.974 119.2 199.067 118.826 199.125 118.44C199.189 118.05 199.223 117.664 199.228 117.283ZM197.888 116.053V117.283C197.883 117.537 197.866 117.803 197.836 118.082C197.812 118.36 197.766 118.633 197.697 118.902C197.624 119.175 197.529 119.437 197.412 119.686C197.299 119.93 197.158 120.145 196.987 120.33C196.811 120.521 196.601 120.672 196.357 120.784C196.118 120.896 195.839 120.953 195.522 120.953C195.205 120.953 194.926 120.896 194.687 120.784C194.448 120.672 194.24 120.521 194.064 120.33C193.889 120.145 193.742 119.927 193.625 119.678C193.508 119.429 193.413 119.168 193.339 118.895C193.266 118.626 193.212 118.353 193.178 118.074C193.149 117.796 193.132 117.532 193.127 117.283V116.053C193.132 115.804 193.149 115.542 193.178 115.269C193.212 114.991 193.266 114.715 193.339 114.441C193.408 114.173 193.5 113.917 193.618 113.672C193.735 113.423 193.881 113.204 194.057 113.013C194.233 112.828 194.44 112.679 194.68 112.566C194.919 112.454 195.195 112.398 195.507 112.398C195.825 112.398 196.103 112.454 196.342 112.566C196.582 112.674 196.789 112.82 196.965 113.006C197.141 113.196 197.287 113.416 197.404 113.665C197.521 113.909 197.617 114.166 197.69 114.434C197.758 114.708 197.807 114.983 197.836 115.262C197.866 115.535 197.883 115.799 197.888 116.053ZM207.98 122V111.336H206.611L206.589 119.29L202.451 111.336H201.074V122H202.443L202.465 114.031L206.604 122H207.98ZM217.502 112.493V111.336H209.592V112.493H212.888V122H214.206V112.493H217.502ZM225.244 117.891V116.778H219.641V117.891H225.244ZM234.194 117.071V115.921H229.741V112.493H234.868V111.336H228.386V122H234.934V120.85H229.741V117.071H234.194ZM244.016 122V111.336H242.646L242.624 119.29L238.486 111.336H237.109V122H238.479L238.5 114.031L242.639 122H244.016ZM246.206 122H248.674C249.187 121.995 249.663 121.934 250.102 121.817C250.546 121.7 250.944 121.531 251.296 121.312C251.628 121.102 251.928 120.848 252.197 120.55C252.465 120.252 252.688 119.92 252.863 119.554C253.034 119.202 253.164 118.816 253.251 118.396C253.344 117.977 253.391 117.532 253.391 117.063V116.28C253.386 115.792 253.334 115.333 253.237 114.903C253.144 114.473 253.007 114.078 252.827 113.716C252.626 113.292 252.358 112.918 252.021 112.596C251.689 112.269 251.306 112.005 250.871 111.805C250.559 111.658 250.217 111.546 249.846 111.468C249.479 111.385 249.089 111.341 248.674 111.336H246.206V122ZM247.583 112.449H248.674C249.011 112.454 249.321 112.493 249.604 112.566C249.887 112.635 250.144 112.732 250.373 112.859C250.695 113.03 250.966 113.255 251.186 113.533C251.411 113.807 251.589 114.114 251.721 114.456C251.823 114.72 251.899 115.005 251.948 115.313C252.001 115.616 252.031 115.933 252.036 116.265V117.063C252.031 117.391 252.004 117.706 251.955 118.008C251.906 118.306 251.833 118.584 251.735 118.843C251.623 119.161 251.469 119.449 251.274 119.708C251.083 119.961 250.856 120.176 250.593 120.352C250.344 120.523 250.058 120.655 249.736 120.748C249.418 120.84 249.064 120.889 248.674 120.894H247.583V112.449ZM264.223 122H266.691C267.204 121.995 267.68 121.934 268.12 121.817C268.564 121.7 268.962 121.531 269.313 121.312C269.646 121.102 269.946 120.848 270.214 120.55C270.483 120.252 270.705 119.92 270.881 119.554C271.052 119.202 271.181 118.816 271.269 118.396C271.362 117.977 271.408 117.532 271.408 117.063V116.28C271.403 115.792 271.352 115.333 271.254 114.903C271.162 114.473 271.025 114.078 270.844 113.716C270.644 113.292 270.375 112.918 270.039 112.596C269.707 112.269 269.323 112.005 268.889 111.805C268.576 111.658 268.234 111.546 267.863 111.468C267.497 111.385 267.106 111.341 266.691 111.336H264.223V122ZM265.6 112.449H266.691C267.028 112.454 267.338 112.493 267.622 112.566C267.905 112.635 268.161 112.732 268.391 112.859C268.713 113.03 268.984 113.255 269.204 113.533C269.428 113.807 269.606 114.114 269.738 114.456C269.841 114.72 269.917 115.005 269.965 115.313C270.019 115.616 270.048 115.933 270.053 116.265V117.063C270.048 117.391 270.021 117.706 269.973 118.008C269.924 118.306 269.851 118.584 269.753 118.843C269.641 119.161 269.487 119.449 269.292 119.708C269.101 119.961 268.874 120.176 268.61 120.352C268.361 120.523 268.076 120.655 267.753 120.748C267.436 120.84 267.082 120.889 266.691 120.894H265.6V112.449ZM279.238 117.071V115.921H274.785V112.493H279.912V111.336H273.43V122H279.978V120.85H274.785V117.071H279.238ZM284.995 122H286.174L289.536 111.336H288.093L285.734 119.283L285.573 119.817L285.419 119.297L283.076 111.336H281.625L284.995 122ZM297.255 117.071V115.921H292.802V112.493H297.929V111.336H291.447V122H297.995V120.85H292.802V117.071H297.255ZM301.928 120.85V111.336H300.573V122H307.143V120.85H301.928ZM316.342 117.283V116.067C316.337 115.687 316.303 115.301 316.24 114.91C316.181 114.52 316.088 114.144 315.961 113.782C315.83 113.421 315.664 113.084 315.463 112.771C315.268 112.454 315.034 112.178 314.76 111.944C314.487 111.709 314.172 111.526 313.815 111.395C313.459 111.258 313.061 111.189 312.622 111.189C312.182 111.189 311.784 111.258 311.428 111.395C311.076 111.526 310.764 111.709 310.49 111.944C310.217 112.183 309.98 112.461 309.78 112.779C309.584 113.091 309.423 113.428 309.296 113.79C309.165 114.151 309.067 114.527 309.003 114.917C308.945 115.303 308.913 115.687 308.908 116.067V117.283C308.913 117.664 308.947 118.047 309.011 118.433C309.074 118.819 309.172 119.192 309.304 119.554C309.431 119.915 309.594 120.254 309.794 120.572C309.995 120.884 310.231 121.158 310.505 121.392C310.778 121.626 311.091 121.812 311.442 121.949C311.799 122.081 312.197 122.146 312.636 122.146C313.076 122.146 313.471 122.081 313.823 121.949C314.179 121.812 314.494 121.626 314.768 121.392C315.041 121.158 315.275 120.884 315.471 120.572C315.671 120.259 315.834 119.922 315.961 119.561C316.088 119.2 316.181 118.826 316.24 118.44C316.303 118.05 316.337 117.664 316.342 117.283ZM315.002 116.053V117.283C314.997 117.537 314.98 117.803 314.951 118.082C314.926 118.36 314.88 118.633 314.812 118.902C314.738 119.175 314.643 119.437 314.526 119.686C314.414 119.93 314.272 120.145 314.101 120.33C313.925 120.521 313.715 120.672 313.471 120.784C313.232 120.896 312.954 120.953 312.636 120.953C312.319 120.953 312.041 120.896 311.801 120.784C311.562 120.672 311.354 120.521 311.179 120.33C311.003 120.145 310.856 119.927 310.739 119.678C310.622 119.429 310.527 119.168 310.454 118.895C310.38 118.626 310.327 118.353 310.292 118.074C310.263 117.796 310.246 117.532 310.241 117.283V116.053C310.246 115.804 310.263 115.542 310.292 115.269C310.327 114.991 310.38 114.715 310.454 114.441C310.522 114.173 310.615 113.917 310.732 113.672C310.849 113.423 310.996 113.204 311.171 113.013C311.347 112.828 311.555 112.679 311.794 112.566C312.033 112.454 312.309 112.398 312.622 112.398C312.939 112.398 313.217 112.454 313.457 112.566C313.696 112.674 313.903 112.82 314.079 113.006C314.255 113.196 314.401 113.416 314.519 113.665C314.636 113.909 314.731 114.166 314.804 114.434C314.873 114.708 314.921 114.983 314.951 115.262C314.98 115.535 314.997 115.799 315.002 116.053ZM319.895 117.723H321.997C322.475 117.718 322.927 117.645 323.352 117.503C323.781 117.361 324.157 117.156 324.479 116.888C324.802 116.619 325.056 116.29 325.241 115.899C325.432 115.503 325.527 115.049 325.527 114.537C325.527 114.024 325.432 113.57 325.241 113.174C325.056 112.779 324.802 112.447 324.479 112.178C324.157 111.91 323.781 111.705 323.352 111.563C322.927 111.421 322.475 111.346 321.997 111.336H318.54V122H319.895V117.723ZM319.895 116.609V112.449H321.997C322.309 112.454 322.597 112.505 322.861 112.603C323.129 112.701 323.361 112.84 323.557 113.021C323.747 113.201 323.896 113.421 324.003 113.68C324.116 113.938 324.172 114.229 324.172 114.551C324.172 114.874 324.116 115.162 324.003 115.416C323.896 115.665 323.745 115.877 323.549 116.053C323.354 116.229 323.125 116.365 322.861 116.463C322.597 116.556 322.309 116.604 321.997 116.609H319.895ZM333.291 117.071V115.921H328.837V112.493H333.964V111.336H327.482V122H334.03V120.85H328.837V117.071H333.291ZM339.963 117.649L342.058 122H343.486L343.493 121.912L341.23 117.356C341.523 117.229 341.792 117.076 342.036 116.895C342.28 116.714 342.49 116.507 342.666 116.272C342.841 116.038 342.978 115.777 343.076 115.489C343.178 115.201 343.229 114.883 343.229 114.537C343.229 114 343.134 113.533 342.944 113.138C342.758 112.737 342.502 112.405 342.175 112.142C341.843 111.878 341.457 111.68 341.018 111.548C340.578 111.417 340.109 111.346 339.611 111.336H336.484V122H337.832V117.649H339.963ZM337.832 116.536V112.449H339.611C339.938 112.454 340.239 112.5 340.512 112.588C340.791 112.676 341.03 112.806 341.23 112.977C341.43 113.152 341.586 113.37 341.699 113.628C341.811 113.882 341.867 114.18 341.867 114.522C341.867 114.844 341.809 115.13 341.691 115.379C341.574 115.623 341.416 115.831 341.215 116.001C341.01 116.172 340.773 116.304 340.505 116.397C340.236 116.485 339.951 116.531 339.648 116.536H337.832Z" fill="black"/>
<path d="M56 116L163 116" stroke="black" stroke-width="2"/>
<path d="M355 116H462" stroke="black" stroke-width="2"/>
</svg>
